<svg xmlns:xlink="http://www.w3.org/1999/xlink" xmlns="http://www.w3.org/2000/svg" version="1.1" viewBox="0 0 1024 1024" height="1024px" width="1024px">
    <title>加载失败</title>
    <defs>
        <linearGradient id="linearGradient-1" y2="100%" x2="50%" y1="0%" x1="50%">
            <stop offset="0%" stop-color="#F9AB21"></stop>
            <stop offset="100%" stop-color="#FEE127"></stop>
        </linearGradient>
        <linearGradient id="linearGradient-2" y2="100%" x2="50%" y1="0%" x1="50%">
            <stop offset="0%" stop-color="#F9AB21"></stop>
            <stop offset="100%" stop-opacity="0" stop-color="#FFF29D"></stop>
        </linearGradient>
        <linearGradient id="linearGradient-3" y2="100%" x2="50%" y1="0%" x1="50%">
            <stop offset="0%" stop-color="#F9AB21"></stop>
            <stop offset="100%" stop-opacity="0" stop-color="#FFF29D"></stop>
        </linearGradient>
        <linearGradient id="linearGradient-4" y2="100%" x2="50%" y1="0%" x1="50%">
            <stop offset="0%" stop-color="#FFF29D"></stop>
            <stop offset="100%" stop-color="#F9AB21"></stop>
        </linearGradient>
        <linearGradient id="linearGradient-5" y2="100%" x2="50%" y1="0%" x1="50%">
            <stop offset="0%" stop-color="#FFF29D"></stop>
            <stop offset="100%" stop-color="#F9AB21"></stop>
        </linearGradient>
        <linearGradient id="linearGradient-6" y2="100%" x2="50%" y1="0%" x1="50%">
            <stop offset="0%" stop-color="#FFF29D"></stop>
            <stop offset="100%" stop-color="#F9AB21"></stop>
        </linearGradient>
        <linearGradient id="linearGradient-7" y2="100%" x2="50%" y1="0%" x1="50%">
            <stop offset="0%" stop-color="#FFF29D"></stop>
            <stop offset="100%" stop-color="#F9AB21"></stop>
        </linearGradient>
        <linearGradient id="linearGradient-8" y2="100%" x2="50%" y1="0%" x1="50%">
            <stop offset="0%" stop-color="#FFF29D"></stop>
            <stop offset="100%" stop-color="#F9AB21"></stop>
        </linearGradient>
        <linearGradient id="linearGradient-9" y2="100%" x2="50%" y1="0%" x1="50%">
            <stop offset="0%" stop-color="#FFF29D"></stop>
            <stop offset="100%" stop-color="#F9AB21"></stop>
        </linearGradient>
        <linearGradient id="linearGradient-10" y2="100%" x2="50%" y1="0%" x1="50%">
            <stop offset="0%" stop-color="#FFF29D"></stop>
            <stop offset="100%" stop-color="#F9AB21"></stop>
        </linearGradient>
        <linearGradient id="linearGradient-11" y2="100%" x2="50%" y1="0%" x1="50%">
            <stop offset="0%" stop-color="#FFF29D"></stop>
            <stop offset="100%" stop-color="#F9AB21"></stop>
        </linearGradient>
        <linearGradient id="linearGradient-12" y2="54.4587449%" x2="61.8333151%" y1="0%" x1="4.34567901%">
            <stop offset="0%" stop-color="#FFF29D"></stop>
            <stop offset="100%" stop-color="#F9AB21"></stop>
        </linearGradient>
        <linearGradient id="linearGradient-13" y2="62.2145095%" x2="93.9928229%" y1="36.44788%" x1="-8.22895932%">
            <stop offset="0%" stop-color="#FFF29D"></stop>
            <stop offset="100%" stop-color="#F9AB21"></stop>
        </linearGradient>
        <linearGradient id="linearGradient-14" y2="100%" x2="50%" y1="-27.638734%" x1="50%">
            <stop offset="0%" stop-color="#FFF29D"></stop>
            <stop offset="100%" stop-color="#F9AB21"></stop>
        </linearGradient>
        <linearGradient id="linearGradient-15" y2="100%" x2="50%" y1="0%" x1="50%">
            <stop offset="0%" stop-color="#FFF29D"></stop>
            <stop offset="100%" stop-color="#F9AB21"></stop>
        </linearGradient>
        <linearGradient id="linearGradient-16" y2="100%" x2="50%" y1="0%" x1="50%">
            <stop offset="0%" stop-color="#FFF29D"></stop>
            <stop offset="100%" stop-color="#F9AB21"></stop>
        </linearGradient>
        <linearGradient id="linearGradient-17" y2="100%" x2="50%" y1="-27.638734%" x1="50%">
            <stop offset="0%" stop-color="#FFF29D"></stop>
            <stop offset="100%" stop-color="#F9AB21"></stop>
        </linearGradient>
        <linearGradient id="linearGradient-18" y2="100%" x2="50%" y1="0%" x1="50%">
            <stop offset="0%" stop-color="#FFF29D"></stop>
            <stop offset="100%" stop-color="#F9AB21"></stop>
        </linearGradient>
        <linearGradient id="linearGradient-19" y2="100%" x2="50%" y1="0%" x1="50%">
            <stop offset="0%" stop-color="#FFF29D"></stop>
            <stop offset="100%" stop-color="#F9AB21"></stop>
        </linearGradient>
        <linearGradient id="linearGradient-20" y2="100%" x2="50%" y1="0%" x1="50%">
            <stop offset="0%" stop-color="#FFF29D"></stop>
            <stop offset="100%" stop-color="#F9AB21"></stop>
        </linearGradient>
        <linearGradient id="linearGradient-21" y2="100%" x2="50%" y1="0%" x1="50%">
            <stop offset="0%" stop-color="#FFF29D"></stop>
            <stop offset="100%" stop-color="#F9AB21"></stop>
        </linearGradient>
        <linearGradient id="linearGradient-22" y2="73.6326896%" x2="100%" y1="11.7098971%" x1="14.3474826%">
            <stop offset="0%" stop-color="#BFD4FA"></stop>
            <stop offset="100%" stop-color="#5792F0"></stop>
        </linearGradient>
        <linearGradient id="linearGradient-23" y2="44.1197864%" x2="48.2138386%" y1="-31.4050544%" x1="24.7258818%">
            <stop offset="0%" stop-color="#BFD4FA"></stop>
            <stop offset="100%" stop-color="#5792F0"></stop>
        </linearGradient>
        <linearGradient id="linearGradient-24" y2="100%" x2="50%" y1="-19.0038784%" x1="50%">
            <stop offset="0%" stop-color="#FFCDA5"></stop>
            <stop offset="100%" stop-color="#FFE8D1"></stop>
        </linearGradient>
        <linearGradient id="linearGradient-25" y2="100%" x2="50%" y1="0%" x1="50%">
            <stop offset="0%" stop-color="#FFF2DF"></stop>
            <stop offset="100%" stop-color="#FEE0BC"></stop>
        </linearGradient>
        <linearGradient id="linearGradient-26" y2="100%" x2="63.6424015%" y1="23.4458427%" x1="21.875%">
            <stop offset="0%" stop-color="#FFF2DF"></stop>
            <stop offset="100%" stop-color="#FEE0BC"></stop>
        </linearGradient>
        <linearGradient id="linearGradient-27" y2="100%" x2="50%" y1="0%" x1="50%">
            <stop offset="0%" stop-color="#FFF2DF"></stop>
            <stop offset="100%" stop-color="#FEE0BC"></stop>
        </linearGradient>
        <linearGradient id="linearGradient-28" y2="100%" x2="50%" y1="0%" x1="50%">
            <stop offset="0%" stop-color="#FEE127"></stop>
            <stop offset="100%" stop-color="#F9AB21"></stop>
        </linearGradient>
    </defs>
    <g fill-rule="evenodd" fill="none" stroke-width="1" stroke="none" id="加载失败">
        <rect height="1024" width="1024" y="0" x="0" id="矩形"></rect>
        <g transform="translate(32.000000, 165.000000)" id="编组">
            <path opacity="0.100000001" fill="url(#linearGradient-1)" id="路径-64" d="M46.1679492,414.648066 C-20.241794,338.160037 4.10158988,272.829541 119.198101,218.656577 C212.145468,195.998986 190.431296,202.89663 201.441699,137.920229 C212.452102,72.943828 241.722431,53.0007005 327.71892,86.1597097 C413.715409,119.318719 494.23237,103.636614 547.707659,46.4855973 C601.182948,-10.6654194 941.137459,-76.9545586 830.853023,261.637112 C772.171933,405.019307 877.38592,469.177581 894.027863,473.573776 C910.669807,477.969972 1066.70031,592.866476 830.853023,688.273166 C595.005737,783.679856 177.066745,746.893 98.2264619,713.283064 C19.3861788,679.673128 74.4945347,551.903191 119.198101,521.508213 C149.000478,501.244895 124.657095,465.624846 46.1679492,414.648066 Z"></path>
            <path fill="url(#linearGradient-2)" id="云" d="M227.502179,163.552424 L212.844204,163.552424 C212.844204,134.210692 189.058263,110.424751 159.716531,110.424751 C130.3748,110.424751 106.5881,134.210692 106.5881,163.552424 L95.8814317,163.552424 C82.3828401,163.552424 71.4403518,175.446532 71.4403518,190.117397 C71.4403518,204.788263 82.3835983,216.680854 95.8814317,216.680854 L227.502937,216.680854 C241.003045,216.680854 251.944775,204.787505 251.944775,190.117397 C251.944775,175.445773 241.002287,163.552424 227.502179,163.552424 Z"></path>
            <path fill="url(#linearGradient-3)" id="云" d="M767.122773,49.0559384 L756.613162,49.0559384 C756.613162,28.0177571 739.558901,10.9647597 718.520719,10.9647597 C697.481274,10.9647597 680.427013,28.0177571 680.427013,49.0559384 L672.749878,49.0559384 C663.071935,49.0559384 655.225433,57.5849649 655.225433,68.1034236 C655.225433,78.6218822 663.071935,87.1483809 672.749878,87.1483809 L767.122773,87.1483809 C776.801979,87.1483809 784.647218,78.6218822 784.647218,68.1034236 C784.647218,57.5849649 776.801979,49.0559384 767.122773,49.0559384 Z"></path>
            <g transform="translate(771.771625, 584.787185)" id="草">
                <path fill="url(#linearGradient-4)" id="路径-43" d="M61.5569445,91.3729976 C59.2101708,80.4629943 52.3567459,72.8365151 40.9966699,68.4935598 C28.023878,64.2345496 20.9164379,59.1719876 29.0341505,55.5011607 C35.8891146,54.9446394 50.5083553,49.49228 61.5569445,82.0597948 C62.3258696,85.215753 62.3258696,88.3201539 61.5569445,91.3729976 Z"></path>
                <path fill="url(#linearGradient-5)" id="路径-44" d="M61.5780407,91.3729976 C54.5548955,65.722988 46.5766036,46.996205 37.6431652,35.1926484 C31.083582,27.1265467 31.5432216,15.5845601 37.6431652,12.9757649 C43.887097,12.2963901 55.394858,11.2456157 64.0596705,55.4511268 C64.6069223,58.4917567 67.6600933,76.2800692 64.0596705,87.7601428 C63.5267525,89.3356895 62.6995426,90.5399744 61.5780407,91.3729976 Z"></path>
                <path fill="url(#linearGradient-6)" id="路径-45" d="M64.6105823,85.3329107 C67.8514598,73.8606648 67.4399953,58.8920276 63.3761887,40.4269993 C57.1601887,22.5268042 46.5501838,0.507607275 65.888883,0 C73.7346838,1.02266807 83.2086927,8.9056081 79.6289139,48.1932677 C77.447439,64.0466233 73.6534498,73.41196 69.671781,85.3329107 C68.2828321,86.0762257 66.5957659,86.0762257 64.6105823,85.3329107 Z"></path>
                <path fill="url(#linearGradient-7)" id="路径-46" d="M67.7765209,91.3729976 C66.5407845,58.6771399 72.440652,35.2127218 85.4761234,20.9797431 C88.9962404,16.2236487 102.388313,11.7692327 102.337757,26.6783894 C100.939677,33.0892328 97.9480824,46.7755827 80.6973102,67.6569228 C75.0141579,75.1936034 71.2790515,86.2067887 71.2426452,88.7889724 C71.2183743,90.5104282 70.0629995,91.37177 67.7765209,91.3729976 Z"></path>
                <path fill="url(#linearGradient-8)" id="路径-47" d="M0,94.9418829 C13.0905778,92.536011 20.3098534,90.4936288 21.6578268,88.8147363 C23.6797869,86.2963976 41.4923352,75.4835029 52.6001672,84.5913563 C55.0181654,81.5271018 62.7729216,79.1434995 67.2108021,84.5913563 C69.2411589,75.9903431 81.9073964,70.4819722 87.4160729,71.3743498 C93.6197065,70.8956228 111.933766,71.0948021 113.302517,94.9418829 C108.305726,95.0565957 70.5382206,95.0565957 0,94.9418829 Z"></path>
            </g>
            <g transform="translate(589.883311, 81.230066)" id="大雁">
                <path fill="url(#linearGradient-9)" id="路径" d="M37.0521863,64.0868095 L37.0521863,63.9906235 C31.7807229,49.1050097 14.5864495,42.100015 0,44.2625418 C10.8158027,37.5361548 28.6705594,35.745105 37.0552872,46.0569083 L37.0552872,46.1464608 C45.4276115,35.9242099 63.378495,37.629024 74.1105744,44.3520942 C59.5365284,42.2890702 42.3391541,49.2841147 37.0552872,64.080176 L37.0521863,64.0868095 Z"></path>
                <path fill="url(#linearGradient-10)" id="路径" d="M119.636507,51.6728757 L119.636507,51.6098572 C115.974391,41.2914204 104.063984,36.4456357 93.9520769,37.9348604 C101.446858,33.2748142 113.825494,32.0310296 119.636507,39.178645 L119.636507,39.2416634 C125.447521,32.1570664 137.881973,33.3378326 145.320938,37.9978788 C135.209031,36.5683558 123.304826,41.4174572 119.636507,51.6728757 L119.636507,51.6728757 Z"></path>
                <path fill="url(#linearGradient-10)" id="路径" d="M85.1964723,17.5439961 L85.1964723,17.4809776 C81.5343556,7.16254079 69.6239491,2.31675607 59.5120419,3.80598081 C67.0068226,-0.85406541 79.3854591,-2.09784999 85.1964723,5.04976539 L85.1964723,5.1127838 C91.0074856,-1.97181315 103.441938,-0.791046991 110.880903,3.86899923 C100.768996,2.43947615 88.8647907,7.28857763 85.1964723,17.5439961 L85.1964723,17.5439961 Z"></path>
                <path fill="url(#linearGradient-11)" id="路径" d="M189.609307,57.5726951 L189.609307,57.5295773 C187.072803,50.3786451 178.812109,47.0154516 171.804164,48.0502804 C177.001207,44.8197572 185.581289,43.9573999 189.609307,48.9126377 L189.609307,48.9557556 C193.640426,44.0436357 202.257718,44.8628751 207.41445,48.0933983 C200.406504,47.0983706 192.145811,50.4648808 189.609307,57.5726951 Z"></path>
            </g>
            <g transform="translate(158.113138, 522.253448) rotate(14.000000) translate(-158.113138, -522.253448) translate(24.969636, 402.691857)" id="叶子">
                <path fill="url(#linearGradient-12)" id="路径-78" d="M80.0043217,-4.15516286e-13 C83.1593581,36.5015678 88.3775178,60.1309825 95.6588007,70.8882441 C96.9424622,69.2000276 98.4218314,67.5236289 100.096908,65.8590482 L97.9809282,73.8705413 C130.671676,126.637381 168.708633,163.423731 212.0918,184.22959 C229.438086,189.845435 285.570756,217.968186 259.484193,151.699318 C242.09315,107.520073 209.139086,69.2505821 160.622001,36.8908456 L150.095021,36.8908456 L154.856513,30.980813 C146.6904,22.1126775 137.45853,14.7568311 127.160902,8.91327366 C125.85344,10.5808661 123.802281,12.2233507 121.007426,13.8407273 L121.480219,4.82615409 L80.0043217,-4.15516286e-13 Z"></path>
                <path fill="url(#linearGradient-13)" id="路径-79" d="M68.2174338,159.09862 C50.2899093,169.918654 40.1649234,166.711115 37.8424761,149.476001 C34.3588051,123.623331 31.3468354,123.454516 12.4347883,119.23447 C-6.47725874,115.014425 -1.6368858,97.0223673 12.4347883,96.8336805 C21.8159044,96.7078893 34.3835777,98.9196072 50.1378084,103.468834 C64.3611665,108.046065 70.3877083,105.834347 68.2174338,96.8336805 C64.962022,83.3326805 53.2170654,72.5197521 68.2174338,74.8084623 C83.2178022,77.0971726 105.141258,104.706672 109.661369,119.23447 C112.674777,128.919669 118.136724,130.716044 126.047209,124.623594 L126.047209,96.8336805 C128.521456,77.9265067 138.015336,87.1898112 154.528849,124.623594 C167.458076,143.731284 174.994154,147.771952 177.137083,136.745597 C188.887718,114.360947 212.902832,129.8973 249.182424,183.354655 C285.462015,236.81201 256.276203,251.837893 161.624986,228.432301 C154.143936,217.498402 144.312521,211.800286 132.13074,211.337954 C113.85807,210.644456 94.8902092,209.345964 95.5857271,183.354655 C96.0494057,166.027115 86.9266412,157.94177 68.2174338,159.09862 Z"></path>
            </g>
            <g transform="translate(162.498926, 212.091655)" id="加载失败">
                <path fill="url(#linearGradient-14)" id="路径" d="M77.4818526,215.566106 L77.4818526,480.300665 C77.4818526,490.542596 86.8605851,498.844425 98.4310867,498.844425 L332.844504,507.927566 L349.429688,498.844425 L387.322413,364.616906 L334.776909,263.060004 L410.079564,195.431914 L98.2781726,197.011067 C86.7713852,197.101304 77.4818526,205.380574 77.4818526,215.566106 Z"></path>
                <path fill="url(#linearGradient-15)" id="路径备份" d="M77.4818526,228.354731 L77.4818526,489.387117 C77.4818526,499.627219 86.8244594,507.927566 98.3503929,507.927566 L331.895276,507.927566 L371.702905,366.414167 L315.238073,261.220473 L371.702905,208.224134 L98.1980678,209.803004 C86.7356031,209.893226 77.4818526,218.171017 77.4818526,228.354731 Z"></path>
                <path fill="url(#linearGradient-16)" id="路径" d="M356.252918,426.070112 L369.875445,376.35045 C310.721734,410.327702 280.596162,427.354145 279.498729,427.429777 C255.952166,409.227735 224.852521,382.786398 186.199796,348.105766 C179.488494,342.073664 167.806373,341.884115 160.80267,347.693219 L77.4818526,450.071804 L77.4818526,487.769653 C77.4818526,497.893772 84.5207023,507.927566 100.372684,507.927566 L333.481654,507.927566 L356.252918,426.070112 Z"></path>
                <path fill="url(#linearGradient-17)" id="路径备份-2" d="M526.618755,222.843814 L648.350353,250.515926 C659.219008,252.969594 665.959357,262.515368 663.640371,272.173182 L581.867678,540.825872 C579.179183,552.018628 565.660259,558.36007 553.581144,554.113769 L377.185285,511.626046 L465.749668,366.075417 L442.67183,264.078631 L526.618755,222.843814 Z"></path>
                <path fill="url(#linearGradient-18)" id="路径" d="M508.560757,230.153653 L630.100562,257.793999 C640.952093,260.24485 647.681823,269.779666 645.36649,279.426393 L566.925513,537.18773 C564.241254,548.367638 550.743629,554.701799 538.683546,550.460373 L362.565605,508.021424 L447.787572,373.220832 L424.746094,271.341135 L508.560757,230.153653 Z"></path>
                <path fill="url(#linearGradient-19)" id="路径" d="M574.550959,515.146193 L488.008451,368.480711 C483.491273,361.918099 473.882701,359.783273 466.405113,363.668882 L448.031318,372.01799 L362.565605,507.348467 C464.299945,532.398245 521.148023,546.102031 533.109839,548.459824 C551.052562,551.996513 564.21605,549.5407 566.908492,538.25662 L574.550959,515.146193 Z"></path>
                <ellipse ry="33.8080091" rx="38.376659" cy="324.267841" cx="545.3116" fill-rule="nonzero" fill="#FFFFFF" id="椭圆形"></ellipse>
                <polygon points="33.01039 4.23013055 23.5648343 68.6128899 54.0615988 70.0236243 56.6782328 122.500431 70.1689957 56.364659 39.1675201 54.9305774" transform="translate(46.866915, 63.365281) rotate(-26.000000) translate(-46.866915, -63.365281)" fill="url(#linearGradient-20)" id="路径-2"></polygon>
                <path transform="translate(515.764555, 138.304938) rotate(27.000000) translate(-515.764555, -138.304938)" fill="url(#linearGradient-21)" id="路径-3" d="M530.319576,52.2100659 L473.627987,137.820337 L525.316637,150.111613 L484.588207,224.399811 C535.448166,164.970321 559.845509,134.776137 557.780236,133.81726 C555.714962,132.858382 538.085175,129.106557 504.890873,122.561782 L530.319576,52.2100659 Z"></path>
            </g>
            <g transform="translate(302.114417, 197.159736)" id="人物">
                <path transform="translate(111.657082, 353.870606) scale(-1, 1) rotate(-8.000000) translate(-111.657082, -353.870606)" fill-rule="nonzero" fill="url(#linearGradient-22)" id="路径-52备份" d="M117.770339,345.038155 L116.427383,353.814657 C110.958132,353.985699 105.010399,355.593364 98.5841853,358.637652 C94.4489392,361.290768 94.2648907,362.492898 94.1317658,364.777349 C94.0430159,366.300317 105.726727,366.300317 129.1829,364.777349 L129.1829,341.821638 L117.770339,345.038155 Z"></path>
                <path transform="translate(148.206281, 353.870606) scale(-1, 1) rotate(-8.000000) translate(-148.206281, -353.870606)" fill-rule="nonzero" fill="url(#linearGradient-22)" id="路径-52备份-2" d="M154.319538,345.038155 L152.976582,353.814657 C147.507331,353.985699 141.559598,355.593364 135.133384,358.637652 C130.998138,361.290768 130.81409,362.492898 130.680965,364.777349 C130.592215,366.300317 142.275926,366.300317 165.732099,364.777349 L165.732099,341.821638 L154.319538,345.038155 Z"></path>
                <path fill-rule="nonzero" fill="url(#linearGradient-23)" id="路径-62备份" d="M71.8223839,182.43278 C67.4296958,201.325556 69.1203852,214.637193 76.8944521,222.367693 C84.3880785,223.251816 98.3683501,224.351098 118.835267,225.665539 C119.620133,265.568418 120.615381,293.298014 121.82101,308.854328 C123.026639,324.410642 124.350487,337.876129 125.792552,349.250789 L146.638632,348.137364 L151.679176,229.989497 C151.583746,211.772579 148.054815,199.114818 141.092381,192.016214 C134.129948,184.917611 126.551925,180.677877 118.358315,179.297014 L71.8223839,182.43278 Z"></path>
                <path fill-rule="nonzero" fill="url(#linearGradient-23)" id="路径-62" d="M37.1006448,182.43278 C32.7079567,201.325556 34.3986461,214.637193 42.172713,222.367693 C49.6663395,223.251816 63.646611,224.351098 84.1135275,225.665539 C84.898394,265.568418 85.8936419,293.298014 87.099271,308.854328 C88.3049001,324.410642 89.6287475,337.876129 91.0708131,349.250789 L111.916893,348.137364 L116.957437,229.989497 C116.862007,211.772579 113.333076,199.114818 106.370642,192.016214 C99.4082084,184.917611 91.8301864,180.677877 83.6365759,179.297014 L37.1006448,182.43278 Z"></path>
                <path fill="#FEE0BC" id="胳膊-path" d="M11.6413713,126.300675 L0.79516002,145.550185 C0.79516002,145.550185 -0.227329006,147.287573 0.046639345,148.946461 C0.335284571,150.682368 1.91549488,151.96603 1.91549488,151.96603 L38.1522898,170.159714 L38.376659,154.230708 L20.6138348,145.927385 L30.7115254,130.45283 L11.6413713,126.300675 Z"></path>
                <path fill="#FEE0BC" id="胳膊-path" d="M145.524786,126.300675 L156.370093,145.180494 C156.370093,145.180494 157.388984,146.884515 157.114668,148.511544 C156.830553,150.214113 155.248334,151.473122 155.248334,151.473122 L119.108044,170.159714 L118.784897,153.694306 L136.550712,145.55045 L126.454878,130.373087 L145.524786,126.300675 Z"></path>
                <g transform="translate(42.031579, 0.000000)" id="脑袋">
                    <rect height="19.3611973" width="19.352598" y="68.5628189" x="25.8388355" fill="url(#linearGradient-24)" id="矩形"></rect>
                    <ellipse ry="26.0197435" rx="27.8142085" cy="46.4282358" cx="34.7673066" fill="url(#linearGradient-25)" id="椭圆形"></ellipse>
                    <ellipse ry="6.46007424" rx="4.84505568" cy="47.6843613" cx="63.1198546" fill="url(#linearGradient-26)" id="椭圆形"></ellipse>
                    <ellipse ry="6.46007424" rx="4.84505568" cy="51.2732914" cx="5.69697249" transform="translate(5.696972, 51.273291) rotate(-8.000000) translate(-5.696972, -51.273291)" fill="url(#linearGradient-27)" id="椭圆形备份"></ellipse>
                    <path fill="#483029" id="路径-67" d="M9.43285138,52.0826086 C5.58602988,50.1369728 2.80792737,46.0855996 1.09854384,39.9284891 C-1.50734591,25.1848542 5.72823884,11.3064113 10.5673877,8.52238962 C15.4065366,5.73836796 18.1752286,4.19795813 20.7348135,5.64570107 C22.8056726,2.52777298 33.2910177,-3.18409156 49.4164692,2.25662162 C65.5419206,7.6973348 70.2284216,23.8645803 69.3401119,32.0596117 C68.7479054,37.522966 66.4460814,43.2687204 62.43464,49.296875 L62.43464,41.1162785 C61.5112802,45.3583841 60.3199035,48.0852496 58.8605098,49.296875 C59.50746,46.1005204 59.7127589,42.1933312 58.9944926,40.4074872 C58.2762263,38.6216433 58.2353526,42.4943476 57.2126645,45.3401101 C53.1219031,39.7755341 47.7662591,35.8259844 41.1457327,33.4914608 L40.4184618,35.1434293 C34.2652125,29.0220979 30.3405417,25.3648774 28.6444493,24.1717678 C26.1003107,22.3821034 24.4099718,22.5637545 23.77946,24.9128139 C22.9383514,24.3680448 20.7996352,22.6306571 19.703184,25.6673138 C17.994397,29.4862203 15.4247885,34.5576706 14.5589128,45.0637224 C12.8232178,42.059337 11.5680765,45.3804649 12.0744599,49.870225 C11.3916539,49.7628563 10.7081319,49.5507568 10.023894,49.2339266 L9.43285138,52.0826086 Z"></path>
                </g>
                <path fill="url(#linearGradient-28)" id="衣服" d="M68.2697662,79.3325812 C69.5693316,80.7371353 72.6790414,84.0864241 77.5988954,89.3804477 C84.3220033,82.3179602 87.6835572,78.7867165 87.6835572,78.7867165 L107.051173,83.0633215 C107.051173,83.0633215 112.368374,83.9561869 115.611282,87.1746096 C124.570667,96.0656122 139.431562,113.341041 139.431562,113.341041 L149.851716,124.92971 C147.256609,128.063285 144.250963,130.829596 140.916677,133.153263 C135.687122,136.747707 128.636475,139.509917 128.636475,139.509917 L120.451298,131.659939 L120.451298,186.606854 L37.0851891,186.606854 L37.0851891,130.909854 L32.2451732,136.893421 C32.2451732,136.893421 25.0776647,135.490067 18.8450487,132.40758 C14.7037641,130.259252 10.8315176,127.624098 7.30983981,124.557601 L31.8751115,94.2793926 C33.4025291,92.6951617 35.0167518,91.1977184 36.7102582,89.7940399 C38.2489069,88.5679926 39.8656898,87.4442196 41.5502741,86.4299031 C43.6058714,85.5398813 45.7190733,84.7905302 47.8754055,84.1869824 C55.4665371,82.0853748 68.2697662,79.3325812 68.2697662,79.3325812 Z"></path>
                <path fill="#483029" id="Fill-1633" d="M122.439817,188.434314 L36.549199,188.434314 L36.549199,136.528623 C36.549199,133.907392 38.705891,131.783055 41.3653225,131.783055 L117.623693,131.783055 C120.283896,131.783055 122.439817,133.907392 122.439817,136.528623 L122.439817,188.434314 Z"></path>
                <path fill="#483029" id="Fill-1634" d="M126.094737,186.606854 L32.8942791,186.606854 L32.8942791,187.730207 C32.8942791,188.118842 33.4029908,188.434314 34.030513,188.434314 L124.95934,188.434314 C125.586862,188.434314 126.094737,188.118842 126.094737,187.730207 L126.094737,186.606854 Z"></path>
            </g>
        </g>
    </g>
</svg>